<svg xmlns="http://www.w3.org/2000/svg" xmlns:xlink="http://www.w3.org/1999/xlink" width="1280" height="750" viewBox="0 0 1280 750"><defs><style>.a,.f{fill:#fff;}.a{stroke:#707070;}.b{clip-path:url(#c);}.c{opacity:0.3;clip-path:url(#a);}.c,.d,.e{mix-blend-mode:multiply;isolation:isolate;}.d,.e{fill:#31ed93;}.d{opacity:0.21;}.e{opacity:0.17;}</style><clipPath id="a"><rect class="a" width="1280" height="348"/></clipPath><clipPath id="c"><rect width="1280" height="750"/></clipPath></defs><g id="b" class="b"><rect class="f" width="1280" height="750"/><g class="c"><g transform="translate(-380.753 -553.181)"><path class="d" d="M2343.442-3033.093s-97.786,63.475-212.728,39.458-377.421-164.693-516.381-132.1S1233.481-2901,1060.21-2885.556,645.053-2904.65,563.125-3058.4s-213.153-329.809-213.153-329.809l54.9-272.773H2374.322Z" transform="translate(-551.244 3616.766) rotate(3)"/><path class="e" d="M2314.278-3141.173s-104.648,41.173-178.417,22.3-180.133-72.053-295.075-49.751-303.652,235.03-475.208,243.608-260.764-149.253-423.741-125.235-233.315,94.355-403.154-15.44-205.866-432.319-205.866-432.319l440.9-235.03s624.46,29.164,629.607,29.164,746.265-13.724,758.273-15.44S2314.278-3141.173,2314.278-3141.173Z" transform="translate(-427.15 3618.806) rotate(3)"/></g></g></g></svg>