<svg xmlns="http://www.w3.org/2000/svg" xmlns:xlink="http://www.w3.org/1999/xlink" width="1280" height="750" viewBox="0 0 1280 750"><defs><style>.a{fill:#fff;}.a,.b{stroke:#707070;}.b,.e,.f{fill:#31ed93;}.c{clip-path:url(#a);}.d{opacity:0.3;}.d,.e,.f{mix-blend-mode:multiply;isolation:isolate;}.e{opacity:0.21;}.f{opacity:0.17;}.g{opacity:0.7;clip-path:url(#b);}</style><clipPath id="a"><rect class="a" width="771" height="660"/></clipPath><clipPath id="b"><rect class="b" width="616" height="526"/></clipPath></defs><g class="c"><g class="d" transform="matrix(-0.602, 0.799, -0.799, -0.602, 1333.813, -829.607)"><g transform="translate(0 0)"><path class="e" d="M2038.569,154.308s-100-64.911-217.541-40.35-385.96,168.419-528.063,135.086S903.5,19.222,726.306,3.432,301.756,22.958,217.975,180.19,0,517.461,0,517.461L56.14,796.4H2070.148Z" transform="matrix(0.999, 0.035, -0.035, 0.999, 27.794, 0)"/><path class="f" d="M2026.289,221.4s-107.016-42.1-182.454-22.807-184.208,73.683-301.75,50.877S1231.563,9.117,1056.126.345,789.463,152.975,622.8,128.414,384.205,31.924,210.523,144.2,0,586.3,0,586.3L450.871,826.65s638.588-29.824,643.851-29.824,763.148,14.035,775.428,15.789S2026.289,221.4,2026.289,221.4Z" transform="translate(287.721 39.54) rotate(3)"/></g></g></g><g class="g" transform="translate(1280 750) rotate(180)"><g class="d" transform="matrix(-0.602, 0.799, -0.799, -0.602, 921.124, -524.844)"><g transform="translate(0 0)"><path class="e" d="M1625.614,123.049s-79.742-51.762-173.473-32.176-307.775,134.3-421.093,107.721S720.474,15.328,579.177,2.737,240.629,18.308,173.819,143.689,0,412.638,0,412.638L44.767,635.076H1650.8Z" transform="matrix(0.999, 0.035, -0.035, 0.999, 783.474, 100.798)"/><path class="f" d="M1615.821,176.547s-85.338-33.576-145.494-18.187-146.893,58.757-240.624,40.57S982.083,7.27,842.185.275,629.54,121.987,496.638,102.4s-190.261-76.944-328.76,12.591S0,467.535,0,467.535l359.538,191.66s509.228-23.783,513.425-23.783S1481.519,646.6,1491.312,648,1615.821,176.547,1615.821,176.547Z" transform="translate(34.5 0) rotate(3)"/></g></g></g></svg>