<svg xmlns="http://www.w3.org/2000/svg" xmlns:xlink="http://www.w3.org/1999/xlink" width="1280" height="750" viewBox="0 0 1280 750"><defs><clipPath id="a"><rect width="1280" height="750" fill="#fff" stroke="#707070" stroke-width="1"/></clipPath><clipPath id="c"><rect width="1280" height="750"/></clipPath></defs><g id="b" clip-path="url(#c)"><rect width="1280" height="750" fill="#fff"/><g clip-path="url(#a)"><g transform="translate(-1139.798 -243.114)" opacity="0.14"><ellipse cx="44" cy="43.5" rx="44" ry="43.5" transform="translate(1508.798 552.114)" fill="#31ed93" opacity="0.48"/><circle cx="81" cy="81" r="81" transform="translate(1297.798 637.114)" fill="#fff78a"/><circle cx="60" cy="60" r="60" transform="translate(1538.798 778.114)" fill="#cbacff" opacity="0.36"/><ellipse cx="131.5" cy="129.5" rx="131.5" ry="129.5" transform="translate(1146.798 898.114)" fill="#54feec" opacity="0.51"/><ellipse cx="131.5" cy="129.5" rx="131.5" ry="129.5" transform="translate(1815.798 67.114)" fill="#fff78a" opacity="0.72"/><ellipse cx="158.5" cy="156.5" rx="158.5" ry="156.5" transform="translate(2233.798 859.114)" fill="#31ed93" opacity="0.72"/><ellipse cx="131.5" cy="129.5" rx="131.5" ry="129.5" transform="translate(2375.798 418.114)" fill="#cbacff" opacity="0.72"/><ellipse cx="46" cy="47.5" rx="46" ry="47.5" transform="translate(1714.798 500.114)" fill="#ffb1b1" opacity="0.78"/><ellipse cx="100" cy="97.5" rx="100" ry="97.5" transform="translate(1660.798 930.114)" fill="#ffb1b1" opacity="0.78"/><ellipse cx="89.5" cy="87" rx="89.5" ry="87" transform="translate(2078.798 418.114)" fill="#ffb1b1" opacity="0.67"/><ellipse cx="64.5" cy="63" rx="64.5" ry="63" transform="translate(1954.798 708.114)" fill="#54feec" opacity="0.44"/><circle cx="120" cy="120" r="120" transform="translate(979.798 309.114)" fill="#37cfff" opacity="0.41"/><ellipse cx="130.5" cy="131" rx="130.5" ry="131" transform="translate(1358.798 64.114)" fill="#31ed93" opacity="0.58"/><ellipse cx="47.5" cy="48" rx="47.5" ry="48" transform="translate(1658.798 326.114)" fill="#ffb1b1" opacity="0.58"/><circle cx="64" cy="64" r="64" transform="translate(1545.798 103.114)" fill="#31ed93"/><ellipse cx="64" cy="64.5" rx="64" ry="64.5" transform="translate(1036.798 722.114)" fill="#31ed93"/></g></g></g></svg>