<svg xmlns="http://www.w3.org/2000/svg" viewBox="0 0 69 37.089">
    <g transform="translate(0)">
        <g transform="translate(0 0)">
            <path
                d="M34.687.006q12.527,0,25.055,0A8.928,8.928,0,0,1,68.758,6.83a8.858,8.858,0,0,1,.23,2c.023,2.851.008,5.7.006,8.554a8.822,8.822,0,0,1-8.72,8.926c-4.466.07-8.935.021-13.4.021q-16.063,0-32.126,0c-2.289,0-4.586.073-6.866-.088A8.8,8.8,0,0,1,.008,17.679Q-.007,13.3,0,8.924A8.828,8.828,0,0,1,8.757.027C15.065-.022,21.374.011,27.682.009h7v0m31.4,16.5c.015-.228.039-.424.04-.62,0-2.335.01-4.669,0-7-.018-3.71-2.325-5.975-6.043-5.974q-18.217.007-36.434,0c-4.984,0-9.967-.008-14.951,0C5.439,2.922,3.17,4.859,2.959,8.1c-.179,2.748-.053,5.517-.059,8.277,0,.037.044.075.083.135Zm-.215,2.98H3.155a5.347,5.347,0,0,0,5,3.913c1.391.046,2.784.018,4.175.018q23.674,0,47.348,0a10.043,10.043,0,0,0,2.139-.167,5.289,5.289,0,0,0,4.054-3.765"
                transform="translate(0 0)" fill="#d4d4d4" />
            <path
                d="M409.22,204.215c.115.749.2,1.5.353,2.246a2.725,2.725,0,0,0,2,2.14c.235.074.473.14.7.228a1.435,1.435,0,0,1-.844,2.743,6,6,0,0,1-4.6-4.347,19.568,19.568,0,0,1-.4-4.116,1.349,1.349,0,0,1,1.431-1.378,1.394,1.394,0,0,1,1.42,1.332,10.7,10.7,0,0,1,.007,1.141l-.075.012"
                transform="translate(-351.672 -174.549)" fill="#d4d4d4" />
            <path
                d="M61.614,204.138c-.012,2.181-.39,4.238-2.066,5.83a6.805,6.805,0,0,1-2.916,1.6,1.436,1.436,0,1,1-.864-2.738c2.331-.874,2.883-1.653,2.949-4.18.013-.492-.023-.987.009-1.478a1.4,1.4,0,0,1,1.453-1.44A1.43,1.43,0,0,1,61.61,203.2c.021.312,0,.627,0,.941"
                transform="translate(-47.355 -174.547)" fill="#d4d4d4" />
            <path
                d="M307.917,204.034c.043.49.084.979.129,1.468a3.349,3.349,0,0,0,2.7,3.249,1.443,1.443,0,1,1-.74,2.774,6.283,6.283,0,0,1-4.754-5.339,19.731,19.731,0,0,1-.145-3.079,1.427,1.427,0,0,1,2.854-.017c.021.312,0,.627,0,.94l-.047,0"
                transform="translate(-263.996 -174.525)" fill="#d4d4d4" />
            <path
                d="M162.987,204.242a29.436,29.436,0,0,1-.672,3.263,6.065,6.065,0,0,1-4.494,4.036,1.412,1.412,0,0,1-1.81-.956,1.444,1.444,0,0,1,1-1.79c2.263-.823,2.913-1.743,2.955-4.193.009-.515-.031-1.032,0-1.545a1.4,1.4,0,0,1,1.393-1.354,1.442,1.442,0,0,1,1.464,1.368c.028.379,0,.761,0,1.142Z"
                transform="translate(-134.935 -174.525)" fill="#d4d4d4" />
            <path
                d="M218.211,73.493c-1.391,0-2.782,0-4.173,0a1.443,1.443,0,1,1,0-2.859q4.24-.008,8.481,0a1.452,1.452,0,0,1,1.643,1.46,1.47,1.47,0,0,1-1.64,1.4q-2.154,0-4.308,0Z"
                transform="translate(-183.779 -61.113)" fill="#d4d4d4" />
        </g>
    </g>
</svg>