<svg xmlns="http://www.w3.org/2000/svg" viewBox="0 0 29.018 29.018"><g transform="translate(8.713 -3.861)"><g transform="translate(-7.463 5.111)"><path d="M28.518,19.237V11.281C28.518,4.652,25.866,2,19.237,2H11.281C4.652,2,2,4.652,2,11.281v7.955c0,6.629,2.652,9.281,9.281,9.281h7.955C25.866,28.518,28.518,25.866,28.518,19.237Z" transform="translate(-2 -2)" fill="none" stroke="#31ed93" stroke-linecap="round" stroke-linejoin="round" stroke-width="2.5"/><path d="M2.52,7.11H27.659" transform="translate(-1.831 -0.335)" fill="none" stroke="#31ed93" stroke-linecap="round" stroke-linejoin="round" stroke-width="2.5"/><path d="M8.52,2.11V8.554" transform="translate(0.125 -1.964)" fill="none" stroke="#31ed93" stroke-linecap="round" stroke-linejoin="round" stroke-width="2.5"/><path d="M15.48,2.11V7.957" transform="translate(2.393 -1.964)" fill="none" stroke="#31ed93" stroke-linecap="round" stroke-linejoin="round" stroke-width="2.5"/><path d="M9.75,15.4V13.813c0-2.042,1.445-2.877,3.209-1.856l1.379.8,1.379.8c1.763,1.021,1.763,2.692,0,3.712l-1.379.8-1.379.8C11.2,19.873,9.75,19.037,9.75,17V15.4Z" transform="translate(0.526 1.103)" fill="none" stroke="#31ed93" stroke-linecap="round" stroke-linejoin="round" stroke-miterlimit="10" stroke-width="2.5"/></g></g></svg>