<svg xmlns="http://www.w3.org/2000/svg" viewBox="0 0 34.991 27.687"><g transform="translate(0 0)"><path d="M34.991,10.218c-.086.427-.167.854-.257,1.28a12.434,12.434,0,0,1-2.3,4.97,35.557,35.557,0,0,1-5.28,5.472,69.45,69.45,0,0,1-7.426,5.526,1.085,1.085,0,0,1-1.324-.007c-1.444-1.018-2.9-2.013-4.328-3.059-1-.731-1.942-1.53-2.91-2.3a1.048,1.048,0,1,1,1.3-1.634c1.3,1.025,2.587,2.067,3.906,3.067.866.657,1.777,1.252,2.688,1.889.5-.339,1.014-.647,1.485-1.005,1.687-1.284,3.394-2.545,5.031-3.891a30.734,30.734,0,0,0,5.018-5.105,11.255,11.255,0,0,0,1.753-3.1,8.013,8.013,0,0,0,.34-4.64,7.221,7.221,0,0,0-1.788-3.3A6.981,6.981,0,0,0,26.879,2.2,7.455,7.455,0,0,0,21,3.641a6.049,6.049,0,0,0-1,.931,1.154,1.154,0,0,1-1.87.014,7.3,7.3,0,0,0-5.559-2.5,6.808,6.808,0,0,0-4.1,1.237,7.25,7.25,0,0,0-3.2,5.3,8.58,8.58,0,0,0,1.042,4.9,1.643,1.643,0,0,0,.085.144c.014.023.032.043.049.065h6.06c.318-.731.633-1.464.955-2.194.4-.9.79-1.807,1.207-2.7a.917.917,0,0,1,.993-.522.942.942,0,0,1,.859.694c.164.542.277,1.1.408,1.652q.542,2.282,1.082,4.564c.023.1.057.2.1.357.3-.482.564-.918.832-1.355.359-.587.726-1.17,1.074-1.764a1.179,1.179,0,0,1,1.106-.619c1.183.005,2.366,0,3.549,0a1.037,1.037,0,0,1,1.081,1.33,1.05,1.05,0,0,1-1.088.741c-.913,0-1.826,0-2.739,0h-.353c-.334.544-.665,1.08-.993,1.618q-.986,1.621-1.97,3.244a1.028,1.028,0,0,1-1.043.561,1.052,1.052,0,0,1-.925-.885c-.281-1.177-.555-2.355-.834-3.532-.174-.733-.351-1.465-.543-2.266-.078.149-.136.247-.181.35-.29.665-.592,1.326-.861,2a1.181,1.181,0,0,1-1.232.8c-2.692-.01-5.385,0-8.077,0-1.183,0-2.367-.024-3.549.009A1.275,1.275,0,0,1,0,15.025v-.5a1.261,1.261,0,0,1,1.384-.789c.79.035,1.583.008,2.374.007.1,0,.194-.008.318-.014-.032-.107-.052-.177-.073-.246-.2-.649-.435-1.289-.591-1.948A9.411,9.411,0,0,1,6.905,1.883,8.965,8.965,0,0,1,12.076.029a9.5,9.5,0,0,1,6.072,1.762c.316.225.618.471.933.712a1.4,1.4,0,0,0,.137-.1,9.663,9.663,0,0,1,9.951-1.7,9.214,9.214,0,0,1,5.566,6.576c.112.45.173.912.257,1.368Z" transform="translate(0 -0.001)" fill="#31ed93"/></g></svg>