<svg xmlns="http://www.w3.org/2000/svg" viewBox="0 0 30.078 26.177"><g transform="translate(1 1.237)"><path d="M4,0H24.078a4,4,0,0,1,4,4V8.3a4,4,0,0,1-4,4H4a4,4,0,0,1-4-4V4A4,4,0,0,1,4,0Z" transform="translate(0 11.642)" fill="none" stroke="#31ed93" strokeWidth="2"/><g transform="translate(8.551)"><path d="M4.91,10.833a6.762,6.762,0,0,1,8.452,0" transform="translate(-3.177 -6.67)" fill="none" stroke="#31ed93" strokeLinecap="round" strokeLinejoin="round" strokeWidth="2"/><path d="M2,6.941a9.53,9.53,0,0,1,11.913,0" transform="translate(-2 -4.85)" fill="none" stroke="#31ed93" strokeLinecap="round" strokeLinejoin="round" strokeWidth="2"/><path d="M6.79,14.264a2.747,2.747,0,0,1,3.438,0" transform="translate(-2.556 -8.17)" fill="none" stroke="#31ed93" strokeLinecap="round" strokeLinejoin="round" strokeWidth="2"/><g transform="translate(5.2 7.596)" fill="none" stroke="#31ed93" strokeWidth="2"><circle cx="0.743" cy="0.743" r="0.743" stroke="none"/><circle cx="0.743" cy="0.743" r="0.257" fill="none"/></g></g><g transform="translate(4.87 5.826)"><line y2="5.759" transform="translate(0)" fill="none" stroke="#31ed93" strokeLinecap="round" strokeWidth="2"/><line y2="5.759" transform="translate(19.275)" fill="none" stroke="#31ed93" strokeLinecap="round" strokeWidth="2"/></g><g transform="translate(17.414 17.483)"><g fill="none" stroke="#31ed93" strokeWidth="2"><ellipse cx="1.246" cy="1.246" rx="1.246" ry="1.246" stroke="none"/><ellipse cx="1.246" cy="1.246" rx="0.246" ry="0.246" fill="none"/></g><g transform="translate(4.238)" fill="none" stroke="#31ed93" strokeWidth="2"><ellipse cx="1.246" cy="1.246" rx="1.246" ry="1.246" stroke="none"/><ellipse cx="1.246" cy="1.246" rx="0.246" ry="0.246" fill="none"/></g></g></g></svg>