<svg xmlns="http://www.w3.org/2000/svg" viewBox="0 0 57.201 60.413">
    <g transform="translate(-309.124 -312.023)">
        <g transform="translate(309.224 312.123)">
            <g transform="translate(0 0)">
                <path
                    d="M30.129,6.848l-.14-.07a18.058,18.058,0,0,0-9.118-1.753A17.788,17.788,0,0,0,4.715,24.289,17.413,17.413,0,0,0,6.983,31.56a19.616,19.616,0,0,0,2.455,3.273,18.2,18.2,0,0,1,2.174,2.829,17.847,17.847,0,0,1,2.431,7.9c.094,1.45.117,1.637.421,1.987.538.631.14.608,7.809.608,7.014,0,7.224,0,7.645-.327.421-.351.584-.795.584-1.777a15.844,15.844,0,0,1,1.637-7.014,17.6,17.6,0,0,1,2.712-4.021,19.751,19.751,0,0,0,3.11-4.489A17.608,17.608,0,0,0,30.129,6.848m2.455,26.068a24.3,24.3,0,0,0-2.478,3.3,20.578,20.578,0,0,0-2.712,7.6c-.047.281-.094.655-.117.842l-.047.257v.047l.047.234H17.083a.072.072,0,0,1,.023-.047V45.1l-.07-.421a25.126,25.126,0,0,0-.7-3.741,19.951,19.951,0,0,0-4.606-8.16,15.482,15.482,0,0,1-3.273-5.494,14.391,14.391,0,0,1,.281-9.726A14.876,14.876,0,0,1,20.683,8.367a10.768,10.768,0,0,1,2.876-.023,14.522,14.522,0,0,1,9.025,24.572"
                    transform="translate(6.215 6.666)" fill="#fff" stroke="#fff" strokeWidth="0.2"
                    fillRule="evenodd" />
                <path
                    d="M22.993,27.551H10.434a1.568,1.568,0,0,1-1.569-1.569v0a1.568,1.568,0,0,1,1.569-1.569h12.56a1.57,1.57,0,0,1,0,3.14h0"
                    transform="translate(11.861 32.661)" fill="#fff" stroke="#fff" strokeWidth="0.2" />
                <path
                    d="M23.753,13.483l-5.7,3.507V33.449a1.4,1.4,0,0,1-2.806,0V16.99l-5.7-3.507a1.411,1.411,0,0,1,1.473-2.408l5.635,3.484,5.635-3.484a1.411,1.411,0,0,1,1.473,2.408"
                    transform="translate(11.867 14.549)" fill="#fff" stroke="#fff" strokeWidth="0.2" />
                <path
                    d="M27.252.514c-.5.5-.519.624-.519,3.4s.019,2.9.519,3.4a1.585,1.585,0,0,0,2.24.1.974.974,0,0,0,.1-.1c.5-.5.519-.624.519-3.4S30.1,1.017,29.6.514a1.583,1.583,0,0,0-2.237-.1,1.323,1.323,0,0,0-.1.1ZM9.291,7.963C8.255,9,8.468,9.553,10.809,11.893c1.772,1.772,2.177,2.076,2.761,2.076A1.769,1.769,0,0,0,15.3,12.244c0-.587-.3-.989-2.076-2.761-2.338-2.343-2.89-2.555-3.928-1.52m34.35,1.52c-1.772,1.772-2.076,2.177-2.076,2.761a1.771,1.771,0,0,0,1.725,1.725c.587,0,.989-.3,2.761-2.076C48.389,9.555,48.6,9,47.569,7.963s-1.59-.823-3.928,1.52M.514,25.924a1.585,1.585,0,0,0-.1,2.24.973.973,0,0,0,.1.1c.5.5.624.519,3.4.519s2.9-.019,3.4-.519a1.585,1.585,0,0,0,.1-2.24.973.973,0,0,0-.1-.1c-.5-.5-.624-.519-3.4-.519s-2.894.019-3.4.519m49.177,0a1.585,1.585,0,0,0-.1,2.24.974.974,0,0,0,.1.1c.5.5.624.519,3.4.519s2.9-.019,3.4-.519a1.585,1.585,0,0,0,.1-2.24.972.972,0,0,0-.1-.1c-.5-.5-.624-.519-3.4-.519s-2.9.019-3.4.519"
                    transform="translate(0 0)" fill="#fff" stroke="#fff" strokeWidth="0.2" fillRule="evenodd" />
            </g>
        </g>
    </g>
</svg>