<svg xmlns="http://www.w3.org/2000/svg" viewBox="0 0 23.634 23.634"><g transform="translate(1.003 1.003)"><path d="M3.33,5.7A3.176,3.176,0,0,1,5.7,3.33h0a6.775,6.775,0,0,1,3.095,0h0A3.176,3.176,0,0,1,11.158,5.7h0a6.775,6.775,0,0,1,0,3.095h0a3.176,3.176,0,0,1-2.367,2.367h0a6.775,6.775,0,0,1-3.095,0h0A3.176,3.176,0,0,1,3.33,8.791h0a6.776,6.776,0,0,1,0-3.095Z" transform="translate(-3.15 -3.15)" fill="none" stroke="#010c06" strokeWidth="2"/><path d="M3.33,16.7A3.176,3.176,0,0,1,5.7,14.33h0a6.777,6.777,0,0,1,3.095,0h0A3.176,3.176,0,0,1,11.158,16.7h0a6.775,6.775,0,0,1,0,3.095h0a3.176,3.176,0,0,1-2.367,2.367h0a6.777,6.777,0,0,1-3.095,0h0A3.176,3.176,0,0,1,3.33,19.791h0a6.776,6.776,0,0,1,0-3.095Z" transform="translate(-3.15 -0.709)" fill="none" stroke="#010c06" strokeWidth="2"/><path d="M14.33,5.7A3.176,3.176,0,0,1,16.7,3.33h0a6.775,6.775,0,0,1,3.095,0h0A3.176,3.176,0,0,1,22.158,5.7h0a6.777,6.777,0,0,1,0,3.095h0a3.176,3.176,0,0,1-2.367,2.367h0a6.775,6.775,0,0,1-3.095,0h0A3.176,3.176,0,0,1,14.33,8.791h0a6.777,6.777,0,0,1,0-3.095Z" transform="translate(-0.709 -3.15)" fill="none" stroke="#010c06" strokeWidth="2"/><path d="M14.33,16.7A3.176,3.176,0,0,1,16.7,14.33h0a6.777,6.777,0,0,1,3.095,0h0A3.176,3.176,0,0,1,22.158,16.7h0a6.777,6.777,0,0,1,0,3.095h0a3.176,3.176,0,0,1-2.367,2.367h0a6.777,6.777,0,0,1-3.095,0h0a3.176,3.176,0,0,1-2.367-2.367h0a6.777,6.777,0,0,1,0-3.095Z" transform="translate(-0.709 -0.709)" fill="none" stroke="#010c06" strokeWidth="2"/></g></svg>