<svg xmlns="http://www.w3.org/2000/svg" viewBox="0 0 28 28"><g transform="translate(-27 -66)"><rect width="28" height="28" transform="translate(27 66)" fill="none"/><g transform="translate(29.862 68.786)"><path d="M3.438,10.383a9.319,9.319,0,0,1,6.945-6.945,16.568,16.568,0,0,1,7.567,0,9.319,9.319,0,0,1,6.945,6.945,16.568,16.568,0,0,1,0,7.567,9.319,9.319,0,0,1-6.945,6.945,16.568,16.568,0,0,1-7.567,0A9.319,9.319,0,0,1,3.438,17.95,16.568,16.568,0,0,1,3.438,10.383Z" transform="translate(-3 -3)" fill="none" stroke="#010c06" strokeWidth="2"/></g><g transform="translate(44 67)" fill="#ff5656" stroke="#fff" strokeWidth="2"><circle cx="5" cy="5" r="5" stroke="none"/><circle cx="5" cy="5" r="4" fill="none"/></g></g></svg>