<svg xmlns="http://www.w3.org/2000/svg" viewBox="0 0 100.784 110.822">
  <path id="Path_159" data-name="Path 159" d="M54.818,97.469c0,2.829.006,5.478,0,8.127a8.939,8.939,0,0,1-.115,1.693,4.4,4.4,0,0,1-8.721-.785c-.031-2.734-.01-5.469-.011-8.2,0-.222,0-.443,0-.844-.289.273-.452.42-.608.575-1.832,1.826-3.649,3.669-5.5,5.476a4.331,4.331,0,0,1-4.851.856,4.425,4.425,0,0,1-2.623-4.182,4.521,4.521,0,0,1,1.439-3.128q5.83-5.815,11.648-11.642a3.988,3.988,0,0,1,.473-.366V71.024a16.714,16.714,0,0,1-7.116-4.211l-12.249,6.71c-.468,1.592-.949,3.222-1.427,4.853-1.131,3.853-2.252,7.708-3.393,11.557a4.409,4.409,0,0,1-8.61-1.9c.657-2.586,1.465-5.133,2.207-7.7.057-.2.107-.4.191-.71-.247.11-.41.169-.561.251-2.418,1.32-4.826,2.658-7.253,3.959a4.411,4.411,0,0,1-5.454-1.018,4.35,4.35,0,0,1-.218-5.428A5.7,5.7,0,0,1,3.72,75.981c2.28-1.308,4.6-2.545,6.9-3.809.219-.12.435-.243.756-.422-.271-.1-.435-.163-.6-.212-2.541-.748-5.091-1.466-7.621-2.249a4.4,4.4,0,0,1,2.408-8.471c4.329,1.221,8.64,2.507,12.958,3.766L22.4,65.718l12.17-6.673a16.714,16.714,0,0,1,.165-7.878L22.626,43.883c-1.7.409-3.413.821-5.126,1.236-3.7.9-7.4,1.778-11.09,2.693a4.561,4.561,0,0,1-4.428-.921A4.2,4.2,0,0,1,.632,42.6a4.1,4.1,0,0,1,3.062-3.214c2.415-.646,4.856-1.2,7.285-1.792.216-.053.428-.12.783-.221-.31-.2-.5-.319-.685-.432-2.181-1.31-4.371-2.606-6.543-3.932a4.419,4.419,0,1,1,4.3-7.724c2.454,1.426,4.871,2.916,7.305,4.377.189.113.385.215.711.4-.093-.412-.148-.671-.21-.929-.623-2.574-1.292-5.138-1.861-7.724a4.416,4.416,0,0,1,8.616-1.945c.779,3.12,1.52,6.25,2.278,9.376.619,2.552,1.24,5.1,1.867,7.681l11.776,7.074a16.587,16.587,0,0,1,6.616-3.75V25.807c-.566-.551-1.235-1.187-1.888-1.839Q38.906,18.842,33.78,13.706a4.252,4.252,0,0,1-1.1-4.75,4.392,4.392,0,0,1,7.25-1.592c1.828,1.77,3.611,3.587,5.407,5.39a4.483,4.483,0,0,1,.412.562l.229-.1q0-.315,0-.63c0-2.713-.013-5.427.009-8.14a4.417,4.417,0,0,1,8.755-.858,6.047,6.047,0,0,1,.083,1.191c.007,2.566,0,5.132,0,7.7v.852c.26-.229.426-.36.576-.509,1.833-1.826,3.637-3.681,5.5-5.474a4.415,4.415,0,1,1,6.153,6.332c-2.338,2.362-4.7,4.7-7.048,7.05q-2.588,2.585-5.165,5.153V39.818a16.522,16.522,0,0,1,7.117,4.215l12.255-6.71,1.912-6.532c.975-3.329,1.927-6.664,2.933-9.984a4.417,4.417,0,1,1,8.487,2.449c-.687,2.405-1.4,4.8-2.1,7.2-.063.215-.115.434-.211.8.486-.261.848-.453,1.207-.65,2.2-1.2,4.377-2.427,6.587-3.6a4.418,4.418,0,1,1,4.186,7.78c-2.311,1.3-4.643,2.553-6.966,3.828-.236.13-.47.265-.83.467.368.124.611.215.86.288,2.44.718,4.887,1.413,7.32,2.154a4.407,4.407,0,0,1-2.4,8.482c-5.013-1.429-10.023-2.874-15-4.414a3.941,3.941,0,0,0-3.47.368c-3.29,1.912-6.657,3.69-9.994,5.521-.164.09-.322.188-.532.311a16.627,16.627,0,0,1-.18,7.848l12.105,7.282c.476-.107.968-.209,1.455-.327,4.923-1.193,9.858-2.34,14.763-3.6a4.526,4.526,0,0,1,5.767,3.088,4.37,4.37,0,0,1-3.094,5.364c-2.395.642-4.815,1.19-7.223,1.78-.216.053-.429.118-.771.213.29.19.455.307.628.411,2.181,1.311,4.366,2.614,6.544,3.931a4.454,4.454,0,0,1,1.579,6.375,4.38,4.38,0,0,1-5.91,1.33c-2.413-1.413-4.8-2.877-7.194-4.318-.194-.117-.393-.225-.741-.424.088.406.138.66.2.912.624,2.574,1.287,5.139,1.865,7.723a4.417,4.417,0,0,1-8.6,2.006c-.988-3.978-1.938-7.966-2.9-11.949q-.624-2.571-1.251-5.144L61.482,67.232a16.683,16.683,0,0,1-6.63,3.759V84.954c1.992,1.989,4.016,4.008,6.039,6.029,2.068,2.066,4.162,4.108,6.195,6.208a4.418,4.418,0,1,1-6.3,6.192c-1.8-1.77-3.574-3.565-5.36-5.348-.157-.157-.324-.3-.605-.566" transform="translate(0.001 0.001)" fill="#fff"/>
</svg>
