<svg xmlns="http://www.w3.org/2000/svg" viewBox="0 0 54.664 37.999">
    <g transform="translate(0 0)">
        <g transform="translate(0 0)">
            <path
                d="M27.353,0A39.393,39.393,0,0,1,37.8,1.446a38.442,38.442,0,0,1,9.145,3.889,37.261,37.261,0,0,1,5.523,3.932c.588.509,1.172,1.024,1.734,1.561A1.476,1.476,0,0,1,54.04,13.1a1.5,1.5,0,0,1-1.826-.092,36.885,36.885,0,0,0-6.233-4.8,35.923,35.923,0,0,0-7.75-3.547A35.681,35.681,0,0,0,25.763,3.009a34.415,34.415,0,0,0-7.3,1.068A35,35,0,0,0,12.6,6.129,32.071,32.071,0,0,0,7.472,8.984c-1.193.83-2.331,1.74-3.471,2.641-.553.438-1.056.94-1.583,1.412a1.521,1.521,0,0,1-1.624.169,1.465,1.465,0,0,1-.774-1.549A1.532,1.532,0,0,1,.5,10.771,40.04,40.04,0,0,1,6.738,5.92a37.7,37.7,0,0,1,5.252-2.763,38.265,38.265,0,0,1,9.2-2.662A39.363,39.363,0,0,1,27.353,0"
                transform="translate(0 0)" fill="#fff" />
            <path
                d="M146.072,189.984a30.285,30.285,0,0,1,7.736.926,27.515,27.515,0,0,1,7.295,3.138,28.354,28.354,0,0,1,4.73,3.679,1.493,1.493,0,0,1-.453,2.564,1.414,1.414,0,0,1-1.558-.379,24.386,24.386,0,0,0-26.3-5.136,24.446,24.446,0,0,0-5.913,3.474c-.656.521-1.274,1.092-1.879,1.671a1.5,1.5,0,0,1-2.1.038,1.454,1.454,0,0,1-.026-2.1c1.083-.97,2.186-1.923,3.339-2.808a22.318,22.318,0,0,1,3.9-2.329,25.679,25.679,0,0,1,7.485-2.358c1.477-.217,2.974-.306,3.751-.383"
                transform="translate(-119.444 -179.015)" fill="#fff" />
            <path
                d="M266.952,380.079a15.534,15.534,0,0,1,9.489,3.3,20.785,20.785,0,0,1,1.736,1.558,1.486,1.486,0,0,1-.387,2.435,1.516,1.516,0,0,1-1.613-.254c-.6-.529-1.177-1.083-1.813-1.562a11.431,11.431,0,0,0-3.651-1.8,13.258,13.258,0,0,0-10.773,1.339,12.594,12.594,0,0,0-2.4,1.931,1.458,1.458,0,0,1-1.881.228,1.38,1.38,0,0,1-.6-1.688,2.655,2.655,0,0,1,.739-.975,31.825,31.825,0,0,1,2.638-2.08,13.6,13.6,0,0,1,3.925-1.785,16.548,16.548,0,0,1,4.587-.65"
                transform="translate(-239.484 -358.707)" fill="#fff" />
            <path d="M386.1,573.834a3.219,3.219,0,1,1-3.226,3.086,3.216,3.216,0,0,1,3.226-3.086"
                transform="translate(-358.771 -542.273)" fill="#fff" />
        </g>
    </g>
</svg>